#!OML:ASF F:\twosubjects\two\wednesday\Session 1\rory1.ASF
:FULLY-SPECIFIED
:DEGREES
99
root 18.6573 18.3391 0.298947 0.618209 -4.19055 -7.31961
lowerback 2.04463 1.91851 7.5983
upperback 0.981483 2.69612 2.80331
thorax 0.0821775 1.36645 -1.40637
lowerneck -9.80143 -3.68176 -4.30425
upperneck 12.6477 -4.43008 0.805062
head 5.54316 -2.30838 0.612069
rclavicle -9.47954e-015 -2.42517e-014
rhumerus -3.45401 -31.9502 -87.5256
rradius 19.4049
rwrist 12.5782
rhand -16.0832 32.4235
rfingers 7.12502
rthumb 10.1199 2.68687
lclavicle -9.47954e-015 -2.42517e-014
lhumerus -24.8999 4.06343 87.0121
lradius 30.982
lwrist 13.6
lhand -22.1831 20.0114
lfingers 7.12502
lthumb 4.23195 49.9491
rfemur 7.19881 6.73766 34.0222
rtibia 16.9421
rfoot -13.9097 0.422472
rtoes -0.151331
lfemur -40.5989 0.624491 -10.3426
ltibia 43.1653
lfoot -7.1757 1.08937
ltoes -14.259
100
root 18.6725 18.3403 0.487661 0.654461 -4.42688 -7.28483
lowerback 2.06043 2.02158 7.70154
upperback 0.919261 2.84033 2.66399
thorax 0.0327825 1.43614 -1.61
lowerneck -9.70795 -3.64855 -4.02224
upperneck 12.728 -4.41772 0.693584
head 5.54272 -2.2978 0.533943
rclavicle -1.27968e-014 -2.32578e-014
rhumerus -2.05669 -30.1447 -88.3054
rradius 20.0273
rwrist 10.398
rhand -16.3964 32.6912
rfingers 7.12502
rthumb 9.81771 2.94012
lclavicle -1.27968e-014 -2.32578e-014
lhumerus -26.4987 4.37689 86.8986
lradius 30.1057
lwrist 12.9604
lhand -22.3206 19.8223
lfingers 7.12502
lthumb 4.09917 49.7626
rfemur 8.24999 6.91062 33.8752
rtibia 16.051
rfoot -13.5338 0.998885
rtoes 1.60988
lfemur -39.9425 0.167418 -10.2077
ltibia 40.2552
lfoot -7.19601 1.10062
ltoes -15.414
101
root 18.6816 18.3351 0.672287 0.790911 -4.88351 -7.51412
lowerback 2.03042 2.20462 7.96518
upperback 0.889305 3.08674 2.63394
thorax 0.0554456 1.55967 -1.78733
lowerneck -9.51322 -3.6645 -3.88184
upperneck 12.527 -4.46703 0.682406
head 5.44426 -2.31554 0.509543
rclavicle 2.1506e-014 3.77691e-015
rhumerus -0.864489 -27.8036 -88.8815
rradius 21.0254
rwrist 7.77661
rhand -16.3622 32.0677
rfingers 7.12502
rthumb 9.85072 2.31815
lclavicle 2.1506e-014 3.77691e-015
lhumerus -28.1181 5.09467 86.6895
lradius 29.5232
lwrist 12.0008
lhand -22.8683 19.5796
lfingers 7.12502
lthumb 3.57031 49.5295
rfemur 9.31236 7.27281 34.0347
rtibia 15.0062
rfoot -13.0249 1.59525
rtoes 2.612
lfemur -39.3048 -0.247347 -9.64162
ltibia 37.3808
lfoot -7.33124 1.28586
ltoes -15.7021
102
root 18.6877 18.3411 0.858762 1.06759 -5.25566 -7.74198
lowerback 1.8405 2.37577 8.14365
upperback 0.849754 3.29921 2.66204
thorax 0.14874 1.66803 -1.8497
lowerneck -9.596 -3.67398 -3.82815
upperneck 12.514 -4.49235 0.739185
head 5.45468 -2.32097 0.515206
rclavicle -2.21769e-014 7.7526e-015
rhumerus 0.268918 -25.8446 -89.3314
rradius 22.3728
rwrist 5.47096
rhand -15.8405 30.9169
rfingers 7.12502
rthumb 10.3541 1.19183
lclavicle -2.21769e-014 7.7526e-015
lhumerus -29.4067 5.77435 86.5013
lradius 28.6426
lwrist 11.1074
lhand -22.5508 20.6216
lfingers 7.12502
lthumb 3.8769 50.5661
rfemur 10.2521 7.46884 34.1715
rtibia 13.9155
rfoot -12.4771 2.08953
rtoes 2.7068
lfemur -38.8201 -0.886528 -8.95093
ltibia 34.5568
lfoot -7.63655 1.47079
ltoes -15.9506
103
root 18.6973 18.3475 1.05559 1.1504 -5.55112 -7.67295
lowerback 1.71416 2.55215 8.04919
upperback 0.874506 3.51688 2.63294
thorax 0.261351 1.78065 -1.82094
lowerneck -9.98664 -3.72677 -3.85389
upperneck 12.8241 -4.55654 0.821439
head 5.62196 -2.34748 0.529595
rclavicle 5.57839e-015 4.37326e-015
rhumerus 1.32004 -24.5241 -89.66
rradius 23.762
rwrist 3.658
rhand -15.338 30.0972
rfingers 7.12502
rthumb 10.8388 0.396895
lclavicle 5.57839e-015 4.37326e-015
lhumerus -30.5917 6.55431 86.3539
lradius 27.4549
lwrist 10.2002
lhand -21.8091 21.5395
lfingers 7.12502
lthumb 4.59311 51.4697
rfemur 11.3485 7.64315 34.0473
rtibia 12.9803
rfoot -12.0046 2.23272
rtoes 0.526986
lfemur -38.1223 -1.82116 -8.53676
ltibia 31.8277
lfoot -8.15755 2.06445
ltoes -16.7682
